# xmcd
#
# Track frame offsets:
#	150
#	13709
#	28313
#	44476
#	62738
#	81755
#	100134
#	118257
#	133859
#	150922
#	167458
#	185097
#
# Disc length: 2644
#
# Revision: 2
# Processed by: cddbd v1.5.2PL0 Copyright (c) Steve Scherf et al.
# Submitted via: kJams Pro (development) 1.0patch51.39
#
DISCID=9e0a520c
DTITLE=Back Stage Country Hits Vol. 5 - BS0104
DYEAR=2008
DGENRE=Country
TTITLE0=Clark Family Experience, The - Meanwhile Back At The Ranch
TTITLE1=Garth Brooks - Wild Horses
TTITLE2=Martina McBride - It's My Time
TTITLE3=Jo Dee Messina - Burn
TTITLE4=Kenny Chesney - I Lost It
TTITLE5=Chalee Tennison - Go Back
TTITLE6=SheDaisy - Lucky For You (Tonight I'm Just Me)
TTITLE7=Warren Brothers, The - Move On
TTITLE8=Diamond Rio - One More Day
TTITLE9=Pam Tillis - Please
TTITLE10=Tim Rushlow - She Misses Him
TTITLE11=Dwight Yoakam - What Do You Know About Love
EXTD=
EXTT0=
EXTT1=
EXTT2=
EXTT3=
EXTT4=
EXTT5=
EXTT6=
EXTT7=
EXTT8=
EXTT9=
EXTT10=
EXTT11=
PLAYORDER=
